<svg width="185" height="33" viewBox="0 0 185 33" fill="none" xmlns="http://www.w3.org/2000/svg">
<g clip-path="url(#clip0_53:15069)">
<path d="M21.4579 6.00198L17.2701 20.459H13.3666L10.7555 10.3598L8.14351 20.459H4.21386L0 6.00198H3.67152L6.20525 17.0145L8.94491 6.00198H12.7711L15.4595 16.9882L17.9933 6.00198H21.4579Z" fill="#00011D"/>
<path d="M23.3579 9.29031C23.9347 8.15971 24.7193 7.28965 25.7108 6.68108C26.7014 6.07252 27.8094 5.76776 29.0329 5.76776C30.1017 5.76776 31.0364 5.98504 31.8378 6.42054C32.6392 6.85604 33.2812 7.40346 33.764 8.06471V6.00197H37.4094V20.459H33.764V18.3455C33.299 19.0236 32.656 19.5852 31.8378 20.0282C31.0187 20.4722 30.0757 20.6932 29.0068 20.6932C27.8001 20.6932 26.7014 20.38 25.7108 19.7535C24.7193 19.1271 23.9356 18.2448 23.3579 17.1048C22.7801 15.9657 22.4922 14.6564 22.4922 13.1778C22.4913 11.7171 22.7801 10.4209 23.3579 9.29031ZM33.2458 10.9467C32.9011 10.3118 32.4351 9.82457 31.8499 9.48501C31.2638 9.14545 30.6348 8.97615 29.9629 8.97615C29.291 8.97615 28.6704 9.14169 28.101 9.47184C27.5326 9.80293 27.0713 10.2855 26.7182 10.9204C26.365 11.5553 26.1879 12.3078 26.1879 13.1778C26.1879 14.0479 26.3641 14.8088 26.7182 15.4616C27.0713 16.1144 27.5363 16.6138 28.1141 16.9618C28.6909 17.3099 29.3078 17.4839 29.9629 17.4839C30.6348 17.4839 31.2638 17.3146 31.8499 16.975C32.4361 16.6354 32.9011 16.1492 33.2458 15.5133C33.5906 14.8784 33.763 14.1175 33.763 13.2295C33.763 12.3426 33.5906 11.5825 33.2458 10.9467Z" fill="#00011D"/>
<path d="M49.4291 20.459L44.5686 14.3009V20.459H40.9492V1.14847H44.5686V12.1347L49.377 6.00196H54.0819L47.7742 13.2568L54.1341 20.459H49.4291Z" fill="#00011D"/>
<path d="M55.9829 9.29031C56.5597 8.15971 57.3443 7.28965 58.3358 6.68108C59.3264 6.07252 60.4344 5.76776 61.6579 5.76776C62.7267 5.76776 63.6614 5.98504 64.4628 6.42054C65.2642 6.85604 65.9062 7.40346 66.3889 8.06471V6.00197H70.0344V20.459H66.3889V18.3455C65.924 19.0236 65.281 19.5852 64.4628 20.0282C63.6437 20.4722 62.7007 20.6932 61.6318 20.6932C60.4251 20.6932 59.3264 20.38 58.3358 19.7535C57.3443 19.1271 56.5606 18.2448 55.9829 17.1048C55.4051 15.9657 55.1172 14.6564 55.1172 13.1778C55.1172 11.7171 55.4061 10.4209 55.9829 9.29031ZM65.8718 10.9467C65.527 10.3118 65.061 9.82457 64.4758 9.48501C63.8897 9.14545 63.2607 8.97615 62.5888 8.97615C61.917 8.97615 61.2963 9.14169 60.727 9.47184C60.1585 9.80293 59.6973 10.2855 59.3441 10.9204C58.9909 11.5553 58.8139 12.3078 58.8139 13.1778C58.8139 14.0479 58.99 14.8088 59.3441 15.4616C59.6973 16.1144 60.1623 16.6138 60.74 16.9618C61.3168 17.3099 61.9337 17.4839 62.5888 17.4839C63.2607 17.4839 63.8897 17.3146 64.4758 16.975C65.062 16.6354 65.527 16.1492 65.8718 15.5133C66.2166 14.8784 66.3889 14.1175 66.3889 13.2295C66.3889 12.3426 66.2166 11.5825 65.8718 10.9467Z" fill="#00011D"/>
<path d="M73.5503 9.30253C74.1532 8.18039 74.9891 7.31034 76.0579 6.69331C77.1268 6.07627 78.3503 5.76682 79.7294 5.76682C81.5046 5.76682 82.9742 6.21454 84.1371 7.11093C85.3001 8.00732 86.0801 9.26396 86.477 10.8818H82.5735C82.3666 10.2554 82.0181 9.76436 81.5261 9.40788C81.035 9.05139 80.4274 8.87268 79.7034 8.87268C78.669 8.87268 77.8508 9.2508 77.247 10.008C76.6431 10.7652 76.3421 11.8393 76.3421 13.2305C76.3421 14.6047 76.6431 15.6704 77.247 16.4276C77.8499 17.1848 78.669 17.5629 79.7034 17.5629C81.1682 17.5629 82.1243 16.9016 82.5725 15.5801H86.4761C86.0791 17.1462 85.2954 18.3897 84.1232 19.3114C82.9509 20.2342 81.486 20.6941 79.7285 20.6941C78.3494 20.6941 77.1258 20.3856 76.057 19.7676C74.9882 19.1506 74.1523 18.2806 73.5494 17.1584C72.9455 16.0363 72.6445 14.7279 72.6445 13.2314C72.6455 11.734 72.9465 10.4247 73.5503 9.30253Z" fill="#00011D"/>
<path d="M92.7585 22.8331C92.7585 24.433 92.3662 25.5862 91.5825 26.2907C90.7979 26.9952 89.6731 27.3479 88.2083 27.3479H86.6055V24.243H87.6398C88.1915 24.243 88.5791 24.1339 88.8028 23.9166C89.0264 23.6994 89.1392 23.3466 89.1392 22.8594V6.00197H92.7585V22.8331ZM89.3582 3.66646C88.936 3.25824 88.7245 2.74937 88.7245 2.13986C88.7245 1.5313 88.9351 1.02243 89.3582 0.613271C89.7803 0.205051 90.3189 0 90.974 0C91.6114 0 92.137 0.205051 92.5507 0.613271C92.9645 1.02243 93.1713 1.5313 93.1713 2.13986C93.1713 2.74937 92.9645 3.25824 92.5507 3.66646C92.137 4.07562 91.6114 4.27973 90.974 4.27973C90.3189 4.27973 89.7803 4.07562 89.3582 3.66646Z" fill="#00011D"/>
<path d="M118.366 6.43277C119.184 5.9888 120.12 5.76776 121.171 5.76776C122.394 5.76776 123.501 6.07252 124.493 6.68108C125.483 7.29059 126.268 8.155 126.846 9.27714C127.423 10.3993 127.711 11.7001 127.711 13.1787C127.711 14.6574 127.423 15.9667 126.846 17.1058C126.268 18.2458 125.484 19.128 124.493 19.7545C123.501 20.3809 122.394 20.6941 121.171 20.6941C120.12 20.6941 119.193 20.4769 118.392 20.0414C117.59 19.6068 116.94 19.0584 116.44 18.3972V27.3479H112.82V6.00197H116.44V8.08916C116.905 7.42886 117.547 6.87579 118.366 6.43277ZM123.484 10.9204C123.131 10.2855 122.665 9.80293 122.089 9.47184C121.511 9.14169 120.886 8.97615 120.215 8.97615C119.56 8.97615 118.944 9.14545 118.366 9.48501C117.788 9.82457 117.323 10.3156 116.97 10.9589C116.617 11.6023 116.44 12.3595 116.44 13.2295C116.44 14.0996 116.616 14.8568 116.97 15.5001C117.323 16.1435 117.788 16.6355 118.366 16.9741C118.944 17.3136 119.56 17.4829 120.215 17.4829C120.886 17.4829 121.512 17.3089 122.089 16.9609C122.665 16.6129 123.131 16.1172 123.484 15.4738C123.838 14.8304 124.015 14.0648 124.015 13.1778C124.014 12.3087 123.838 11.5562 123.484 10.9204Z" fill="#00011D"/>
<path d="M143.56 14.3263H133.089C133.175 15.3703 133.538 16.1877 134.175 16.7794C134.812 17.371 135.597 17.6663 136.528 17.6663C137.873 17.6663 138.829 17.0841 139.397 15.9178H143.301C142.887 17.3099 142.094 18.4536 140.923 19.3491C139.75 20.2455 138.312 20.6932 136.605 20.6932C135.226 20.6932 133.99 20.3847 132.896 19.7667C131.801 19.1497 130.948 18.2749 130.336 17.1443C129.724 16.0137 129.418 14.7091 129.418 13.2305C129.418 11.7349 129.719 10.4209 130.323 9.29031C130.926 8.15971 131.771 7.28965 132.857 6.68108C133.942 6.07252 135.192 5.76776 136.605 5.76776C137.967 5.76776 139.187 6.06405 140.264 6.65475C141.341 7.24638 142.177 8.08634 142.771 9.17273C143.366 10.2601 143.663 11.5082 143.663 12.9173C143.663 13.4393 143.629 13.9087 143.56 14.3263ZM139.914 11.8732C139.897 10.9335 139.561 10.1811 138.906 9.61575C138.251 9.05045 137.45 8.76733 136.502 8.76733C135.605 8.76733 134.852 9.04105 134.24 9.58942C133.628 10.1378 133.253 10.8987 133.116 11.8732H139.914Z" fill="#00011D"/>
<path d="M146.232 9.2903C146.809 8.1597 147.598 7.28964 148.597 6.68108C149.596 6.07251 150.708 5.76775 151.932 5.76775C152.863 5.76775 153.75 5.9728 154.595 6.38102C155.44 6.79018 156.112 7.33385 156.612 8.01202V1.14847H160.283V20.459H156.612V18.3191C156.164 19.033 155.535 19.6068 154.725 20.0414C153.914 20.4759 152.976 20.6941 151.907 20.6941C150.7 20.6941 149.597 20.3809 148.598 19.7545C147.598 19.128 146.81 18.2457 146.233 17.1057C145.655 15.9667 145.367 14.6574 145.367 13.1787C145.366 11.717 145.654 10.4209 146.232 9.2903ZM156.121 10.9467C155.776 10.3118 155.31 9.82456 154.725 9.485C154.139 9.14545 153.51 8.97614 152.838 8.97614C152.166 8.97614 151.545 9.14168 150.976 9.47184C150.408 9.80293 149.946 10.2855 149.593 10.9204C149.24 11.5553 149.063 12.3077 149.063 13.1778C149.063 14.0479 149.239 14.8088 149.593 15.4616C149.946 16.1144 150.411 16.6138 150.989 16.9618C151.567 17.3099 152.183 17.4839 152.838 17.4839C153.51 17.4839 154.139 17.3146 154.725 16.975C155.311 16.6354 155.776 16.1492 156.121 15.5133C156.466 14.8784 156.638 14.1175 156.638 13.2295C156.638 12.3425 156.466 11.5825 156.121 10.9467Z" fill="#00011D"/>
<path d="M164.071 3.66646C163.649 3.25824 163.438 2.74937 163.438 2.13986C163.438 1.5313 163.648 1.02243 164.071 0.613271C164.493 0.205051 165.024 0 165.661 0C166.298 0 166.829 0.205051 167.251 0.613271C167.673 1.02243 167.884 1.5313 167.884 2.13986C167.884 2.74937 167.673 3.25824 167.251 3.66646C166.829 4.07562 166.298 4.27973 165.661 4.27973C165.024 4.27973 164.493 4.07562 164.071 3.66646ZM167.445 6.00197V20.459H163.825V6.00197H167.445Z" fill="#00011D"/>
<path d="M170.949 9.29031C171.526 8.15971 172.31 7.28965 173.302 6.68108C174.292 6.07252 175.4 5.76776 176.624 5.76776C177.692 5.76776 178.627 5.98504 179.429 6.42054C180.23 6.85604 180.872 7.40346 181.355 8.06471V6.00197H185V20.459H181.355V18.3455C180.89 19.0236 180.247 19.5852 179.429 20.0282C178.61 20.4722 177.666 20.6932 176.598 20.6932C175.391 20.6932 174.292 20.38 173.302 19.7535C172.31 19.1271 171.526 18.2448 170.949 17.1048C170.371 15.9657 170.083 14.6564 170.083 13.1778C170.083 11.7171 170.372 10.4209 170.949 9.29031ZM180.838 10.9467C180.493 10.3118 180.027 9.82457 179.442 9.48501C178.856 9.14545 178.227 8.97615 177.555 8.97615C176.883 8.97615 176.262 9.14169 175.693 9.47184C175.124 9.80293 174.663 10.2855 174.31 10.9204C173.957 11.5553 173.78 12.3078 173.78 13.1778C173.78 14.0479 173.956 14.8088 174.31 15.4616C174.663 16.1144 175.128 16.6138 175.706 16.9618C176.284 17.3099 176.9 17.4839 177.555 17.4839C178.227 17.4839 178.856 17.3146 179.442 16.975C180.028 16.6354 180.493 16.1492 180.838 15.5133C181.182 14.8784 181.355 14.1175 181.355 13.2295C181.355 12.3426 181.182 11.5825 180.838 10.9467Z" fill="#00011D"/>
<path d="M110.197 13.2305C110.197 11.7519 109.874 10.4472 109.227 9.31664C108.581 8.18604 107.698 7.31129 106.578 6.69331C105.457 6.07628 104.207 5.76776 102.829 5.76776C101.45 5.76776 100.2 6.07628 99.0803 6.69331C97.9602 7.31129 97.0768 8.18604 96.4301 9.31664C95.7843 10.4472 95.4609 11.7519 95.4609 13.2305C95.4609 14.6094 95.734 15.8378 96.2819 16.9139L96.2241 16.9722L101.607 26.2013C102.155 27.1419 103.503 27.1419 104.051 26.2013L109.433 16.9722L109.347 16.8847C109.913 15.8152 110.197 14.5972 110.197 13.2305ZM105.957 15.5792C105.613 16.2225 105.151 16.706 104.574 17.0277C103.997 17.3494 103.381 17.5102 102.726 17.5102C101.691 17.5102 100.834 17.1406 100.153 16.4012C99.6049 15.8058 99.2778 15.0054 99.1707 13.998C99.1455 13.7544 99.1325 13.4986 99.1325 13.2305C99.1325 11.8563 99.481 10.8 100.179 10.0597C100.877 9.32041 101.744 8.95075 102.777 8.95075C103.811 8.95075 104.686 9.32041 105.401 10.0597C106.117 10.8 106.475 11.8563 106.475 13.2305C106.475 13.4788 106.462 13.7177 106.436 13.9463C106.369 14.5652 106.209 15.1089 105.957 15.5792Z" fill="#F9B233"/>
<path d="M102.828 33C104.855 33 106.498 32.5368 106.498 31.9654C106.498 31.3939 104.855 30.9307 102.828 30.9307C100.801 30.9307 99.1572 31.3939 99.1572 31.9654C99.1572 32.5368 100.801 33 102.828 33Z" fill="#F9B233"/>
</g>
<defs>
<clipPath id="clip0_53:15069">
<rect width="185" height="33" fill="white"/>
</clipPath>
</defs>
</svg>
